<svg viewBox="0 0 512 71.2" version="1.1" xmlns="http://www.w3.org/2000/svg" id="Layer_1">
  
  <defs>
    <style>
      .st0 {
        fill: #016698;
      }

      .st1 {
        fill: #58595b;
      }
    </style>
  </defs>
  <path d="M14.2,66c-1.7,0-3.4-.4-5-1.1-4.3-2-6.9-6.1-6.9-10.8V17.1c0-4.6,2.6-8.7,6.7-10.7,4.2-2,9-1.5,12.6,1.4.3.2.5.4.7.7l9,10.4-8.1,7-8.5-9.8c-.4-.2-.8-.1-1.1,0-.5.2-.7.6-.7,1.1v37c0,.5.2.9.7,1.1.5.2.9.2,1.3-.2l31.9-27.3,6.9,8.1-31.9,27.3c-2.2,1.9-4.9,2.9-7.7,2.9ZM61.8,64.8c4.2-2,6.7-6.1,6.7-10.7V17.1c0-4.7-2.7-8.9-6.9-10.8-4.3-2-9.2-1.3-12.7,1.8l-32.6,27.8,6.9,8.1,32.6-27.8c.4-.3.9-.4,1.3-.2.5.2.7.6.7,1.1v37c0,.5-.2.9-.7,1.1-.3.1-.7.2-1.1,0l-8.5-9.8-8.1,7,9,10.4c.2.2.4.5.7.7,2.2,1.7,4.8,2.6,7.4,2.6s3.5-.4,5.2-1.2Z" class="st0"></path>
  <g>
    <path d="M86.8,35.9c0,9.5,6.6,16.5,15.4,16.5s10.1-3.2,12.2-7.3l9.2,4.4c-3.6,6.3-9.9,12.4-21.4,12.4s-26.4-10.5-26.4-26,11.7-26,26.4-26,17.9,6,21.4,12.3l-9.2,4.5c-2.1-4.1-6.6-7.3-12.2-7.3-8.7,0-15.4,7-15.4,16.5ZM164,40.5c0,7-3.8,11.8-11.5,11.8s-11.7-4.8-11.7-11.8V10.7h-10.8v30.2c0,12.4,7.2,20.9,22.5,20.9s22.4-8.5,22.4-21V10.7h-10.8v29.8ZM184.8,60.9h10.7v-20.9h24.3v-9.2h-24.3v-10.9h24.9v-9.2h-35.5v50.2ZM227.8,60.9h10.7v-20.9h24.3v-9.2h-24.3v-10.9h24.9v-9.2h-35.5v50.2ZM281.5,10.7h-10.7v50.2h31.9v-9.4h-21.2V10.7ZM310.2,60.9h10.7V10.7h-10.7v50.2ZM365.1,43.2l-23.3-32.5h-11v50.2h10.7V27.2l24,33.7h10.3V10.7h-10.7v32.5ZM427.4,10.7h-13.2l-17.8,22.4V10.7h-10.7v50.2h10.7v-15.4l3.9-4.7,15.2,20.1h13.2l-21.3-26.7,20-23.6ZM452.8,30.2c-5.8-1.4-10-2.4-10-5.8s2.6-5.1,7.4-5.1,10.3,1.7,14.4,5.5l6-7.8c-5-4.6-11.6-7-19.6-7-11.8,0-19.1,6.8-19.1,15.1s10.5,13.5,18.8,15.4c5.8,1.4,10.2,2.6,10.2,6.4s-2.9,5.6-8.7,5.6-12.4-3.1-16-6.8l-5.9,8.1c4.7,4.7,11.7,8,21.3,8s20.1-6.9,20.1-16.1-10.5-13.6-18.8-15.5Z"></path>
    <path d="M505.3,15.6h0c.7-.3,1.1-.7,1.1-1.4s-.2-1-.5-1.2c-.4-.2-.9-.4-1.9-.4s-1.6,0-2.1.2v5.5h1.3v-2.2h.6c.7,0,1,.3,1.1.9.2.6.3,1.1.4,1.3h1.4c-.1-.2-.2-.5-.4-1.4-.2-.7-.5-1.1-1-1.3ZM503.8,15.2h-.6v-1.6c.1,0,.4,0,.7,0,.8,0,1.2.3,1.2.8s-.6.8-1.3.8ZM504.1,9.9c-3.2,0-5.7,2.5-5.7,5.5s2.5,5.6,5.7,5.6,5.7-2.5,5.7-5.6-2.5-5.5-5.7-5.5ZM504.1,19.8c-2.5,0-4.3-2-4.3-4.4s1.8-4.4,4.3-4.4,4.3,2,4.3,4.5-1.8,4.4-4.2,4.4Z"></path>
    <path d="M490.8,60.8c0-.6.5-1.1,1-1.1s1.1.5,1.1,1.1-.5,1-1.1,1-1-.5-1-1ZM484.9,58.7c-4.8,0-8.1-3.5-8.1-7.9s1.1-4.4,2.8-5.7l.7,1.1c-1.4,1-2.3,2.7-2.3,4.6,0,3.6,2.8,6.5,6.9,6.5s6.9-2.8,6.9-6.5c0-1.9-.9-3.6-2.3-4.6l.7-1.1c1.7,1.4,2.8,3.2,2.8,5.7,0,4.4-3.3,7.9-8.1,7.9ZM476.8,35.4c0-4.6,3.5-7.6,8.1-7.6s8.1,3,8.1,7.6c0,4.6-3.5,7.6-8.1,7.6-4.6,0-8.1-3-8.1-7.6ZM478,35.4c0,3.8,2.9,6.2,6.9,6.2,3.9,0,6.9-2.4,6.9-6.2,0-3.7-2.9-6.2-6.9-6.2-4,0-6.9,2.4-6.9,6.2ZM478.8,11.2l13.9,5.7v.5s-13.9,5.7-13.9,5.7h13.9v1.3h-15.6v-2s13-5.3,13-5.3l-13-5.3v-2h15.6v1.4h-13.9Z" class="st1"></path>
  </g>
</svg>